<svg width="318" height="318" viewBox="0 0 318 318" fill="none" xmlns="http://www.w3.org/2000/svg">
<rect width="318" height="318" rx="8" fill="#EBEBEB"/>
<path d="M159 155.667C166.977 155.667 173.444 149.2 173.444 141.222C173.444 133.245 166.977 126.778 159 126.778C151.023 126.778 144.556 133.245 144.556 141.222C144.556 149.2 151.023 155.667 159 155.667Z" fill="#BAC7C7"/>
<path d="M136.1 191.222H181.9C186.975 191.222 190.884 186.858 188.515 182.371C185.028 175.769 177.08 167.889 159 167.889C140.92 167.889 132.972 175.769 129.485 182.371C127.115 186.858 131.025 191.222 136.1 191.222Z" fill="#BAC7C7"/>
<rect x="0.5" y="0.5" width="317" height="317" rx="7.5" stroke="black" stroke-opacity="0.1"/>
</svg>
