<svg width="175" height="30" viewBox="0 0 175 30" fill="none" xmlns="http://www.w3.org/2000/svg">
<path fill-rule="evenodd" clip-rule="evenodd" d="M6.58319 6.89317C4.97982 7.96452 3.73013 9.48726 2.99218 11.2688C2.25423 13.0504 2.06114 15.0108 2.43735 16.9021C2.81356 18.7934 3.74215 20.5307 5.10572 21.8943C6.46928 23.2579 8.20656 24.1865 10.0979 24.5627C11.9892 24.9389 13.9496 24.7458 15.7312 24.0078C17.5127 23.2699 19.0355 22.0202 20.1068 20.4168C21.1782 18.8134 21.75 16.9284 21.75 15C21.75 14.3787 22.2537 13.875 22.875 13.875C23.4963 13.875 24 14.3787 24 15C24 17.3734 23.2962 19.6935 21.9776 21.6668C20.6591 23.6402 18.7849 25.1783 16.5922 26.0866C14.3995 26.9948 11.9867 27.2324 9.65892 26.7694C7.33115 26.3064 5.19296 25.1635 3.51473 23.4853C1.8365 21.8071 0.693606 19.6689 0.230582 17.3411C-0.232441 15.0133 0.0051991 12.6005 0.91345 10.4078C1.8217 8.21509 3.35977 6.34094 5.33316 5.02237C7.30655 3.70379 9.62663 3 12 3C12.6213 3 13.125 3.50368 13.125 4.125C13.125 4.74632 12.6213 5.25 12 5.25C10.0716 5.25 8.18657 5.82183 6.58319 6.89317Z" fill="#515C62"/>
<path fill-rule="evenodd" clip-rule="evenodd" d="M14.9167 19.3652C15.7801 18.7883 16.453 17.9684 16.8504 17.0091C17.2477 16.0498 17.3517 14.9942 17.1491 13.9758C16.9465 12.9574 16.4465 12.0219 15.7123 11.2877C14.9781 10.5535 14.0426 10.0535 13.0242 9.85088C12.0058 9.64831 10.9502 9.75228 9.99091 10.1496C9.0316 10.547 8.21166 11.2199 7.63478 12.0833C7.05791 12.9466 6.75 13.9617 6.75 15C6.75 15.6213 6.24632 16.125 5.625 16.125C5.00368 16.125 4.5 15.6213 4.5 15C4.5 13.5166 4.93987 12.0666 5.76398 10.8332C6.58809 9.59986 7.75943 8.63857 9.12987 8.07091C10.5003 7.50325 12.0083 7.35472 13.4632 7.64411C14.918 7.9335 16.2544 8.64781 17.3033 9.6967C18.3522 10.7456 19.0665 12.082 19.3559 13.5368C19.6453 14.9917 19.4968 16.4997 18.9291 17.8701C18.3614 19.2406 17.4001 20.4119 16.1668 21.236C14.9334 22.0601 13.4834 22.5 12 22.5C11.3787 22.5 10.875 21.9963 10.875 21.375C10.875 20.7537 11.3787 20.25 12 20.25C13.0384 20.25 14.0534 19.9421 14.9167 19.3652Z" fill="#515C62"/>
<path d="M41.56 22.716C40.6 22.716 39.706 22.542 38.878 22.194C38.062 21.846 37.348 21.36 36.736 20.736C36.124 20.112 35.644 19.38 35.296 18.54C34.96 17.7 34.792 16.782 34.792 15.786C34.792 14.79 34.96 13.872 35.296 13.032C35.632 12.18 36.106 11.448 36.718 10.836C37.33 10.212 38.044 9.732 38.86 9.396C39.688 9.048 40.588 8.874 41.56 8.874C42.532 8.874 43.402 9.036 44.17 9.36C44.95 9.684 45.61 10.116 46.15 10.656C46.69 11.196 47.074 11.796 47.302 12.456L44.836 13.644C44.608 12.996 44.206 12.462 43.63 12.042C43.066 11.61 42.376 11.394 41.56 11.394C40.768 11.394 40.072 11.58 39.472 11.952C38.872 12.324 38.404 12.84 38.068 13.5C37.744 14.148 37.582 14.91 37.582 15.786C37.582 16.662 37.744 17.43 38.068 18.09C38.404 18.75 38.872 19.266 39.472 19.638C40.072 20.01 40.768 20.196 41.56 20.196C42.376 20.196 43.066 19.986 43.63 19.566C44.206 19.134 44.608 18.594 44.836 17.946L47.302 19.134C47.074 19.794 46.69 20.394 46.15 20.934C45.61 21.474 44.95 21.906 44.17 22.23C43.402 22.554 42.532 22.716 41.56 22.716ZM53.5965 22.716C52.6245 22.716 51.7365 22.494 50.9325 22.05C50.1405 21.606 49.5045 21 49.0245 20.232C48.5565 19.452 48.3225 18.57 48.3225 17.586C48.3225 16.59 48.5565 15.708 49.0245 14.94C49.5045 14.172 50.1405 13.566 50.9325 13.122C51.7365 12.678 52.6245 12.456 53.5965 12.456C54.5685 12.456 55.4505 12.678 56.2425 13.122C57.0345 13.566 57.6645 14.172 58.1325 14.94C58.6125 15.708 58.8525 16.59 58.8525 17.586C58.8525 18.57 58.6125 19.452 58.1325 20.232C57.6645 21 57.0345 21.606 56.2425 22.05C55.4505 22.494 54.5685 22.716 53.5965 22.716ZM53.5965 20.286C54.0885 20.286 54.5145 20.172 54.8745 19.944C55.2465 19.716 55.5345 19.398 55.7385 18.99C55.9545 18.582 56.0625 18.114 56.0625 17.586C56.0625 17.058 55.9545 16.596 55.7385 16.2C55.5345 15.792 55.2465 15.474 54.8745 15.246C54.5145 15.006 54.0885 14.886 53.5965 14.886C53.1045 14.886 52.6725 15.006 52.3005 15.246C51.9285 15.474 51.6345 15.792 51.4185 16.2C51.2145 16.596 51.1125 17.058 51.1125 17.586C51.1125 18.114 51.2145 18.582 51.4185 18.99C51.6345 19.398 51.9285 19.716 52.3005 19.944C52.6725 20.172 53.1045 20.286 53.5965 20.286ZM63.4851 22.716C62.7771 22.716 62.1651 22.602 61.6491 22.374C61.1331 22.146 60.7371 21.822 60.4611 21.402C60.1851 20.97 60.0471 20.46 60.0471 19.872C60.0471 19.32 60.1731 18.834 60.4251 18.414C60.6771 17.982 61.0611 17.622 61.5771 17.334C62.1051 17.046 62.7591 16.842 63.5391 16.722L66.5451 16.236V18.216L64.0251 18.666C63.6411 18.738 63.3471 18.864 63.1431 19.044C62.9391 19.212 62.8371 19.458 62.8371 19.782C62.8371 20.082 62.9511 20.316 63.1791 20.484C63.4071 20.652 63.6891 20.736 64.0251 20.736C64.4691 20.736 64.8591 20.64 65.1951 20.448C65.5311 20.256 65.7891 19.998 65.9691 19.674C66.1611 19.338 66.2571 18.972 66.2571 18.576V16.02C66.2571 15.648 66.1071 15.336 65.8071 15.084C65.5191 14.832 65.1231 14.706 64.6191 14.706C64.1391 14.706 63.7131 14.838 63.3411 15.102C62.9811 15.366 62.7171 15.714 62.5491 16.146L60.3891 15.12C60.5811 14.568 60.8871 14.094 61.3071 13.698C61.7271 13.302 62.2311 12.996 62.8191 12.78C63.4071 12.564 64.0491 12.456 64.7451 12.456C65.5731 12.456 66.3051 12.606 66.9411 12.906C67.5771 13.206 68.0691 13.626 68.4171 14.166C68.7771 14.694 68.9571 15.312 68.9571 16.02V22.5H66.4371V20.916L67.0491 20.808C66.7611 21.24 66.4431 21.6 66.0951 21.888C65.7471 22.164 65.3571 22.368 64.9251 22.5C64.4931 22.644 64.0131 22.716 63.4851 22.716ZM75.7613 22.716C74.7773 22.716 73.8893 22.494 73.0973 22.05C72.3173 21.594 71.6933 20.976 71.2253 20.196C70.7693 19.416 70.5413 18.54 70.5413 17.568C70.5413 16.596 70.7693 15.726 71.2253 14.958C71.6813 14.178 72.3053 13.566 73.0973 13.122C73.8893 12.678 74.7773 12.456 75.7613 12.456C76.4933 12.456 77.1713 12.582 77.7953 12.834C78.4193 13.086 78.9533 13.44 79.3973 13.896C79.8413 14.34 80.1593 14.868 80.3513 15.48L78.0113 16.488C77.8433 15.996 77.5553 15.606 77.1473 15.318C76.7513 15.03 76.2893 14.886 75.7613 14.886C75.2933 14.886 74.8733 15 74.5013 15.228C74.1413 15.456 73.8533 15.774 73.6373 16.182C73.4333 16.59 73.3313 17.058 73.3313 17.586C73.3313 18.114 73.4333 18.582 73.6373 18.99C73.8533 19.398 74.1413 19.716 74.5013 19.944C74.8733 20.172 75.2933 20.286 75.7613 20.286C76.3013 20.286 76.7693 20.142 77.1653 19.854C77.5613 19.566 77.8433 19.176 78.0113 18.684L80.3513 19.71C80.1713 20.286 79.8593 20.802 79.4153 21.258C78.9713 21.714 78.4373 22.074 77.8133 22.338C77.1893 22.59 76.5053 22.716 75.7613 22.716ZM81.9412 22.5V8.874H84.6412V14.616L84.3172 14.184C84.5452 13.596 84.9112 13.164 85.4152 12.888C85.9312 12.6 86.5312 12.456 87.2152 12.456C87.9592 12.456 88.6072 12.612 89.1592 12.924C89.7232 13.236 90.1612 13.674 90.4732 14.238C90.7852 14.79 90.9412 15.438 90.9412 16.182V22.5H88.2412V16.758C88.2412 16.374 88.1632 16.044 88.0072 15.768C87.8632 15.492 87.6532 15.276 87.3772 15.12C87.1132 14.964 86.8012 14.886 86.4412 14.886C86.0932 14.886 85.7812 14.964 85.5052 15.12C85.2292 15.276 85.0132 15.492 84.8572 15.768C84.7132 16.044 84.6412 16.374 84.6412 16.758V22.5H81.9412ZM99.2866 22.716C98.3266 22.716 97.4326 22.542 96.6046 22.194C95.7886 21.846 95.0746 21.36 94.4626 20.736C93.8506 20.112 93.3706 19.38 93.0226 18.54C92.6866 17.7 92.5186 16.782 92.5186 15.786C92.5186 14.79 92.6866 13.872 93.0226 13.032C93.3586 12.18 93.8326 11.448 94.4446 10.836C95.0566 10.212 95.7706 9.732 96.5866 9.396C97.4146 9.048 98.3146 8.874 99.2866 8.874C100.259 8.874 101.129 9.036 101.897 9.36C102.677 9.684 103.337 10.116 103.877 10.656C104.417 11.196 104.801 11.796 105.029 12.456L102.563 13.644C102.335 12.996 101.933 12.462 101.357 12.042C100.793 11.61 100.103 11.394 99.2866 11.394C98.4946 11.394 97.7986 11.58 97.1986 11.952C96.5986 12.324 96.1306 12.84 95.7946 13.5C95.4706 14.148 95.3086 14.91 95.3086 15.786C95.3086 16.662 95.4706 17.43 95.7946 18.09C96.1306 18.75 96.5986 19.266 97.1986 19.638C97.7986 20.01 98.4946 20.196 99.2866 20.196C100.103 20.196 100.793 19.986 101.357 19.566C101.933 19.134 102.335 18.594 102.563 17.946L105.029 19.134C104.801 19.794 104.417 20.394 103.877 20.934C103.337 21.474 102.677 21.906 101.897 22.23C101.129 22.554 100.259 22.716 99.2866 22.716ZM111.323 22.716C110.351 22.716 109.463 22.494 108.659 22.05C107.867 21.606 107.231 21 106.751 20.232C106.283 19.452 106.049 18.57 106.049 17.586C106.049 16.59 106.283 15.708 106.751 14.94C107.231 14.172 107.867 13.566 108.659 13.122C109.463 12.678 110.351 12.456 111.323 12.456C112.295 12.456 113.177 12.678 113.969 13.122C114.761 13.566 115.391 14.172 115.859 14.94C116.339 15.708 116.579 16.59 116.579 17.586C116.579 18.57 116.339 19.452 115.859 20.232C115.391 21 114.761 21.606 113.969 22.05C113.177 22.494 112.295 22.716 111.323 22.716ZM111.323 20.286C111.815 20.286 112.241 20.172 112.601 19.944C112.973 19.716 113.261 19.398 113.465 18.99C113.681 18.582 113.789 18.114 113.789 17.586C113.789 17.058 113.681 16.596 113.465 16.2C113.261 15.792 112.973 15.474 112.601 15.246C112.241 15.006 111.815 14.886 111.323 14.886C110.831 14.886 110.399 15.006 110.027 15.246C109.655 15.474 109.361 15.792 109.145 16.2C108.941 16.596 108.839 17.058 108.839 17.586C108.839 18.114 108.941 18.582 109.145 18.99C109.361 19.398 109.655 19.716 110.027 19.944C110.399 20.172 110.831 20.286 111.323 20.286ZM118.17 22.5V12.672H120.69V15.066L120.42 14.67C120.564 13.914 120.912 13.356 121.464 12.996C122.016 12.636 122.676 12.456 123.444 12.456C124.26 12.456 124.974 12.666 125.586 13.086C126.21 13.494 126.6 14.046 126.756 14.742L125.982 14.814C126.306 14.01 126.768 13.416 127.368 13.032C127.968 12.648 128.67 12.456 129.474 12.456C130.182 12.456 130.806 12.612 131.346 12.924C131.898 13.236 132.33 13.674 132.642 14.238C132.954 14.79 133.11 15.438 133.11 16.182V22.5H130.41V16.758C130.41 16.374 130.338 16.044 130.194 15.768C130.062 15.492 129.87 15.276 129.618 15.12C129.366 14.964 129.06 14.886 128.7 14.886C128.352 14.886 128.046 14.964 127.782 15.12C127.53 15.276 127.332 15.492 127.188 15.768C127.056 16.044 126.99 16.374 126.99 16.758V22.5H124.29V16.758C124.29 16.374 124.218 16.044 124.074 15.768C123.942 15.492 123.75 15.276 123.498 15.12C123.246 14.964 122.94 14.886 122.58 14.886C122.232 14.886 121.926 14.964 121.662 15.12C121.41 15.276 121.212 15.492 121.068 15.768C120.936 16.044 120.87 16.374 120.87 16.758V22.5H118.17ZM134.886 26.1V12.672H137.406V14.544L137.172 14.004C137.496 13.512 137.934 13.134 138.486 12.87C139.05 12.594 139.692 12.456 140.412 12.456C141.348 12.456 142.194 12.684 142.95 13.14C143.706 13.596 144.306 14.214 144.75 14.994C145.194 15.762 145.416 16.626 145.416 17.586C145.416 18.534 145.194 19.398 144.75 20.178C144.318 20.958 143.724 21.576 142.968 22.032C142.212 22.488 141.354 22.716 140.394 22.716C139.722 22.716 139.098 22.596 138.522 22.356C137.958 22.104 137.502 21.738 137.154 21.258L137.586 20.7V26.1H134.886ZM140.07 20.286C140.574 20.286 141.018 20.172 141.402 19.944C141.786 19.716 142.086 19.398 142.302 18.99C142.518 18.582 142.626 18.114 142.626 17.586C142.626 17.058 142.518 16.596 142.302 16.2C142.086 15.792 141.786 15.474 141.402 15.246C141.018 15.006 140.574 14.886 140.07 14.886C139.59 14.886 139.158 15 138.774 15.228C138.402 15.456 138.108 15.774 137.892 16.182C137.688 16.59 137.586 17.058 137.586 17.586C137.586 18.114 137.688 18.582 137.892 18.99C138.108 19.398 138.402 19.716 138.774 19.944C139.158 20.172 139.59 20.286 140.07 20.286ZM150.04 22.716C149.332 22.716 148.72 22.602 148.204 22.374C147.688 22.146 147.292 21.822 147.016 21.402C146.74 20.97 146.602 20.46 146.602 19.872C146.602 19.32 146.728 18.834 146.98 18.414C147.232 17.982 147.616 17.622 148.132 17.334C148.66 17.046 149.314 16.842 150.094 16.722L153.1 16.236V18.216L150.58 18.666C150.196 18.738 149.902 18.864 149.698 19.044C149.494 19.212 149.392 19.458 149.392 19.782C149.392 20.082 149.506 20.316 149.734 20.484C149.962 20.652 150.244 20.736 150.58 20.736C151.024 20.736 151.414 20.64 151.75 20.448C152.086 20.256 152.344 19.998 152.524 19.674C152.716 19.338 152.812 18.972 152.812 18.576V16.02C152.812 15.648 152.662 15.336 152.362 15.084C152.074 14.832 151.678 14.706 151.174 14.706C150.694 14.706 150.268 14.838 149.896 15.102C149.536 15.366 149.272 15.714 149.104 16.146L146.944 15.12C147.136 14.568 147.442 14.094 147.862 13.698C148.282 13.302 148.786 12.996 149.374 12.78C149.962 12.564 150.604 12.456 151.3 12.456C152.128 12.456 152.86 12.606 153.496 12.906C154.132 13.206 154.624 13.626 154.972 14.166C155.332 14.694 155.512 15.312 155.512 16.02V22.5H152.992V20.916L153.604 20.808C153.316 21.24 152.998 21.6 152.65 21.888C152.302 22.164 151.912 22.368 151.48 22.5C151.048 22.644 150.568 22.716 150.04 22.716ZM157.492 22.5V12.672H160.012V15.03L159.832 14.688C160.048 13.86 160.402 13.302 160.894 13.014C161.398 12.714 161.992 12.564 162.676 12.564H163.252V14.904H162.406C161.746 14.904 161.212 15.108 160.804 15.516C160.396 15.912 160.192 16.476 160.192 17.208V22.5H157.492ZM169.169 22.716C168.125 22.716 167.219 22.488 166.451 22.032C165.683 21.564 165.089 20.94 164.669 20.16C164.249 19.38 164.039 18.516 164.039 17.568C164.039 16.584 164.255 15.708 164.687 14.94C165.131 14.172 165.725 13.566 166.469 13.122C167.213 12.678 168.053 12.456 168.989 12.456C169.769 12.456 170.459 12.582 171.059 12.834C171.659 13.074 172.163 13.416 172.571 13.86C172.991 14.304 173.309 14.82 173.525 15.408C173.741 15.984 173.849 16.614 173.849 17.298C173.849 17.49 173.837 17.682 173.813 17.874C173.801 18.054 173.771 18.21 173.723 18.342H166.361V16.362H172.193L170.915 17.298C171.035 16.782 171.029 16.326 170.897 15.93C170.765 15.522 170.531 15.204 170.195 14.976C169.871 14.736 169.469 14.616 168.989 14.616C168.521 14.616 168.119 14.73 167.783 14.958C167.447 15.186 167.195 15.522 167.027 15.966C166.859 16.41 166.793 16.95 166.829 17.586C166.781 18.138 166.847 18.624 167.027 19.044C167.207 19.464 167.483 19.794 167.855 20.034C168.227 20.262 168.677 20.376 169.205 20.376C169.685 20.376 170.093 20.28 170.429 20.088C170.777 19.896 171.047 19.632 171.239 19.296L173.399 20.322C173.207 20.802 172.901 21.222 172.481 21.582C172.073 21.942 171.587 22.224 171.023 22.428C170.459 22.62 169.841 22.716 169.169 22.716Z" fill="#373F4C"/>
</svg>
