<svg width="140" height="19" viewBox="0 0 140 19" fill="none" xmlns="http://www.w3.org/2000/svg">
<path d="M7.56 14.716C6.6 14.716 5.706 14.542 4.878 14.194C4.062 13.846 3.348 13.36 2.736 12.736C2.124 12.112 1.644 11.38 1.296 10.54C0.96 9.7 0.792 8.782 0.792 7.786C0.792 6.79 0.96 5.872 1.296 5.032C1.632 4.18 2.106 3.448 2.718 2.836C3.33 2.212 4.044 1.732 4.86 1.396C5.688 1.048 6.588 0.873999 7.56 0.873999C8.532 0.873999 9.402 1.036 10.17 1.36C10.95 1.684 11.61 2.116 12.15 2.656C12.69 3.196 13.074 3.796 13.302 4.456L10.836 5.644C10.608 4.996 10.206 4.462 9.63 4.042C9.066 3.61 8.376 3.394 7.56 3.394C6.768 3.394 6.072 3.58 5.472 3.952C4.872 4.324 4.404 4.84 4.068 5.5C3.744 6.148 3.582 6.91 3.582 7.786C3.582 8.662 3.744 9.43 4.068 10.09C4.404 10.75 4.872 11.266 5.472 11.638C6.072 12.01 6.768 12.196 7.56 12.196C8.376 12.196 9.066 11.986 9.63 11.566C10.206 11.134 10.608 10.594 10.836 9.946L13.302 11.134C13.074 11.794 12.69 12.394 12.15 12.934C11.61 13.474 10.95 13.906 10.17 14.23C9.402 14.554 8.532 14.716 7.56 14.716ZM19.5965 14.716C18.6245 14.716 17.7365 14.494 16.9325 14.05C16.1405 13.606 15.5045 13 15.0245 12.232C14.5565 11.452 14.3225 10.57 14.3225 9.586C14.3225 8.59 14.5565 7.708 15.0245 6.94C15.5045 6.172 16.1405 5.566 16.9325 5.122C17.7365 4.678 18.6245 4.456 19.5965 4.456C20.5685 4.456 21.4505 4.678 22.2425 5.122C23.0345 5.566 23.6645 6.172 24.1325 6.94C24.6125 7.708 24.8525 8.59 24.8525 9.586C24.8525 10.57 24.6125 11.452 24.1325 12.232C23.6645 13 23.0345 13.606 22.2425 14.05C21.4505 14.494 20.5685 14.716 19.5965 14.716ZM19.5965 12.286C20.0885 12.286 20.5145 12.172 20.8745 11.944C21.2465 11.716 21.5345 11.398 21.7385 10.99C21.9545 10.582 22.0625 10.114 22.0625 9.586C22.0625 9.058 21.9545 8.596 21.7385 8.2C21.5345 7.792 21.2465 7.474 20.8745 7.246C20.5145 7.006 20.0885 6.886 19.5965 6.886C19.1045 6.886 18.6725 7.006 18.3005 7.246C17.9285 7.474 17.6345 7.792 17.4185 8.2C17.2145 8.596 17.1125 9.058 17.1125 9.586C17.1125 10.114 17.2145 10.582 17.4185 10.99C17.6345 11.398 17.9285 11.716 18.3005 11.944C18.6725 12.172 19.1045 12.286 19.5965 12.286ZM29.4851 14.716C28.7771 14.716 28.1651 14.602 27.6491 14.374C27.1331 14.146 26.7371 13.822 26.4611 13.402C26.1851 12.97 26.0471 12.46 26.0471 11.872C26.0471 11.32 26.1731 10.834 26.4251 10.414C26.6771 9.982 27.0611 9.622 27.5771 9.334C28.1051 9.046 28.7591 8.842 29.5391 8.722L32.5451 8.236V10.216L30.0251 10.666C29.6411 10.738 29.3471 10.864 29.1431 11.044C28.9391 11.212 28.8371 11.458 28.8371 11.782C28.8371 12.082 28.9511 12.316 29.1791 12.484C29.4071 12.652 29.6891 12.736 30.0251 12.736C30.4691 12.736 30.8591 12.64 31.1951 12.448C31.5311 12.256 31.7891 11.998 31.9691 11.674C32.1611 11.338 32.2571 10.972 32.2571 10.576V8.02C32.2571 7.648 32.1071 7.336 31.8071 7.084C31.5191 6.832 31.1231 6.706 30.6191 6.706C30.1391 6.706 29.7131 6.838 29.3411 7.102C28.9811 7.366 28.7171 7.714 28.5491 8.146L26.3891 7.12C26.5811 6.568 26.8871 6.094 27.3071 5.698C27.7271 5.302 28.2311 4.996 28.8191 4.78C29.4071 4.564 30.0491 4.456 30.7451 4.456C31.5731 4.456 32.3051 4.606 32.9411 4.906C33.5771 5.206 34.0691 5.626 34.4171 6.166C34.7771 6.694 34.9571 7.312 34.9571 8.02V14.5H32.4371V12.916L33.0491 12.808C32.7611 13.24 32.4431 13.6 32.0951 13.888C31.7471 14.164 31.3571 14.368 30.9251 14.5C30.4931 14.644 30.0131 14.716 29.4851 14.716ZM41.7613 14.716C40.7773 14.716 39.8893 14.494 39.0973 14.05C38.3173 13.594 37.6933 12.976 37.2253 12.196C36.7693 11.416 36.5413 10.54 36.5413 9.568C36.5413 8.596 36.7693 7.726 37.2253 6.958C37.6813 6.178 38.3053 5.566 39.0973 5.122C39.8893 4.678 40.7773 4.456 41.7613 4.456C42.4933 4.456 43.1713 4.582 43.7953 4.834C44.4193 5.086 44.9533 5.44 45.3973 5.896C45.8413 6.34 46.1593 6.868 46.3513 7.48L44.0113 8.488C43.8433 7.996 43.5553 7.606 43.1473 7.318C42.7513 7.03 42.2893 6.886 41.7613 6.886C41.2933 6.886 40.8733 7 40.5013 7.228C40.1413 7.456 39.8533 7.774 39.6373 8.182C39.4333 8.59 39.3313 9.058 39.3313 9.586C39.3313 10.114 39.4333 10.582 39.6373 10.99C39.8533 11.398 40.1413 11.716 40.5013 11.944C40.8733 12.172 41.2933 12.286 41.7613 12.286C42.3013 12.286 42.7693 12.142 43.1653 11.854C43.5613 11.566 43.8433 11.176 44.0113 10.684L46.3513 11.71C46.1713 12.286 45.8593 12.802 45.4153 13.258C44.9713 13.714 44.4373 14.074 43.8133 14.338C43.1893 14.59 42.5053 14.716 41.7613 14.716ZM47.9412 14.5V0.873999H50.6412V6.616L50.3172 6.184C50.5452 5.596 50.9112 5.164 51.4152 4.888C51.9312 4.6 52.5312 4.456 53.2152 4.456C53.9592 4.456 54.6072 4.612 55.1592 4.924C55.7232 5.236 56.1612 5.674 56.4732 6.238C56.7852 6.79 56.9412 7.438 56.9412 8.182V14.5H54.2412V8.758C54.2412 8.374 54.1632 8.044 54.0072 7.768C53.8632 7.492 53.6532 7.276 53.3772 7.12C53.1132 6.964 52.8012 6.886 52.4412 6.886C52.0932 6.886 51.7812 6.964 51.5052 7.12C51.2292 7.276 51.0132 7.492 50.8572 7.768C50.7132 8.044 50.6412 8.374 50.6412 8.758V14.5H47.9412ZM65.2866 14.716C64.3266 14.716 63.4326 14.542 62.6046 14.194C61.7886 13.846 61.0746 13.36 60.4626 12.736C59.8506 12.112 59.3706 11.38 59.0226 10.54C58.6866 9.7 58.5186 8.782 58.5186 7.786C58.5186 6.79 58.6866 5.872 59.0226 5.032C59.3586 4.18 59.8326 3.448 60.4446 2.836C61.0566 2.212 61.7706 1.732 62.5866 1.396C63.4146 1.048 64.3146 0.873999 65.2866 0.873999C66.2586 0.873999 67.1286 1.036 67.8966 1.36C68.6766 1.684 69.3366 2.116 69.8766 2.656C70.4166 3.196 70.8006 3.796 71.0286 4.456L68.5626 5.644C68.3346 4.996 67.9326 4.462 67.3566 4.042C66.7926 3.61 66.1026 3.394 65.2866 3.394C64.4946 3.394 63.7986 3.58 63.1986 3.952C62.5986 4.324 62.1306 4.84 61.7946 5.5C61.4706 6.148 61.3086 6.91 61.3086 7.786C61.3086 8.662 61.4706 9.43 61.7946 10.09C62.1306 10.75 62.5986 11.266 63.1986 11.638C63.7986 12.01 64.4946 12.196 65.2866 12.196C66.1026 12.196 66.7926 11.986 67.3566 11.566C67.9326 11.134 68.3346 10.594 68.5626 9.946L71.0286 11.134C70.8006 11.794 70.4166 12.394 69.8766 12.934C69.3366 13.474 68.6766 13.906 67.8966 14.23C67.1286 14.554 66.2586 14.716 65.2866 14.716ZM77.3231 14.716C76.3511 14.716 75.4631 14.494 74.6591 14.05C73.8671 13.606 73.2311 13 72.7511 12.232C72.2831 11.452 72.0491 10.57 72.0491 9.586C72.0491 8.59 72.2831 7.708 72.7511 6.94C73.2311 6.172 73.8671 5.566 74.6591 5.122C75.4631 4.678 76.3511 4.456 77.3231 4.456C78.2951 4.456 79.1771 4.678 79.9691 5.122C80.7611 5.566 81.3911 6.172 81.8591 6.94C82.3391 7.708 82.5791 8.59 82.5791 9.586C82.5791 10.57 82.3391 11.452 81.8591 12.232C81.3911 13 80.7611 13.606 79.9691 14.05C79.1771 14.494 78.2951 14.716 77.3231 14.716ZM77.3231 12.286C77.8151 12.286 78.2411 12.172 78.6011 11.944C78.9731 11.716 79.2611 11.398 79.4651 10.99C79.6811 10.582 79.7891 10.114 79.7891 9.586C79.7891 9.058 79.6811 8.596 79.4651 8.2C79.2611 7.792 78.9731 7.474 78.6011 7.246C78.2411 7.006 77.8151 6.886 77.3231 6.886C76.8311 6.886 76.3991 7.006 76.0271 7.246C75.6551 7.474 75.3611 7.792 75.1451 8.2C74.9411 8.596 74.8391 9.058 74.8391 9.586C74.8391 10.114 74.9411 10.582 75.1451 10.99C75.3611 11.398 75.6551 11.716 76.0271 11.944C76.3991 12.172 76.8311 12.286 77.3231 12.286ZM84.1697 14.5V4.672H86.6897V7.066L86.4197 6.67C86.5637 5.914 86.9117 5.356 87.4637 4.996C88.0157 4.636 88.6757 4.456 89.4437 4.456C90.2597 4.456 90.9737 4.666 91.5857 5.086C92.2097 5.494 92.5997 6.046 92.7557 6.742L91.9817 6.814C92.3057 6.01 92.7677 5.416 93.3677 5.032C93.9677 4.648 94.6697 4.456 95.4737 4.456C96.1817 4.456 96.8057 4.612 97.3457 4.924C97.8977 5.236 98.3297 5.674 98.6417 6.238C98.9537 6.79 99.1097 7.438 99.1097 8.182V14.5H96.4097V8.758C96.4097 8.374 96.3377 8.044 96.1937 7.768C96.0617 7.492 95.8697 7.276 95.6177 7.12C95.3657 6.964 95.0597 6.886 94.6997 6.886C94.3517 6.886 94.0457 6.964 93.7817 7.12C93.5297 7.276 93.3317 7.492 93.1877 7.768C93.0557 8.044 92.9897 8.374 92.9897 8.758V14.5H90.2897V8.758C90.2897 8.374 90.2177 8.044 90.0737 7.768C89.9417 7.492 89.7497 7.276 89.4977 7.12C89.2457 6.964 88.9397 6.886 88.5797 6.886C88.2317 6.886 87.9257 6.964 87.6617 7.12C87.4097 7.276 87.2117 7.492 87.0677 7.768C86.9357 8.044 86.8697 8.374 86.8697 8.758V14.5H84.1697ZM100.886 18.1V4.672H103.406V6.544L103.172 6.004C103.496 5.512 103.934 5.134 104.486 4.87C105.05 4.594 105.692 4.456 106.412 4.456C107.348 4.456 108.194 4.684 108.95 5.14C109.706 5.596 110.306 6.214 110.75 6.994C111.194 7.762 111.416 8.626 111.416 9.586C111.416 10.534 111.194 11.398 110.75 12.178C110.318 12.958 109.724 13.576 108.968 14.032C108.212 14.488 107.354 14.716 106.394 14.716C105.722 14.716 105.098 14.596 104.522 14.356C103.958 14.104 103.502 13.738 103.154 13.258L103.586 12.7V18.1H100.886ZM106.07 12.286C106.574 12.286 107.018 12.172 107.402 11.944C107.786 11.716 108.086 11.398 108.302 10.99C108.518 10.582 108.626 10.114 108.626 9.586C108.626 9.058 108.518 8.596 108.302 8.2C108.086 7.792 107.786 7.474 107.402 7.246C107.018 7.006 106.574 6.886 106.07 6.886C105.59 6.886 105.158 7 104.774 7.228C104.402 7.456 104.108 7.774 103.892 8.182C103.688 8.59 103.586 9.058 103.586 9.586C103.586 10.114 103.688 10.582 103.892 10.99C104.108 11.398 104.402 11.716 104.774 11.944C105.158 12.172 105.59 12.286 106.07 12.286ZM116.04 14.716C115.332 14.716 114.72 14.602 114.204 14.374C113.688 14.146 113.292 13.822 113.016 13.402C112.74 12.97 112.602 12.46 112.602 11.872C112.602 11.32 112.728 10.834 112.98 10.414C113.232 9.982 113.616 9.622 114.132 9.334C114.66 9.046 115.314 8.842 116.094 8.722L119.1 8.236V10.216L116.58 10.666C116.196 10.738 115.902 10.864 115.698 11.044C115.494 11.212 115.392 11.458 115.392 11.782C115.392 12.082 115.506 12.316 115.734 12.484C115.962 12.652 116.244 12.736 116.58 12.736C117.024 12.736 117.414 12.64 117.75 12.448C118.086 12.256 118.344 11.998 118.524 11.674C118.716 11.338 118.812 10.972 118.812 10.576V8.02C118.812 7.648 118.662 7.336 118.362 7.084C118.074 6.832 117.678 6.706 117.174 6.706C116.694 6.706 116.268 6.838 115.896 7.102C115.536 7.366 115.272 7.714 115.104 8.146L112.944 7.12C113.136 6.568 113.442 6.094 113.862 5.698C114.282 5.302 114.786 4.996 115.374 4.78C115.962 4.564 116.604 4.456 117.3 4.456C118.128 4.456 118.86 4.606 119.496 4.906C120.132 5.206 120.624 5.626 120.972 6.166C121.332 6.694 121.512 7.312 121.512 8.02V14.5H118.992V12.916L119.604 12.808C119.316 13.24 118.998 13.6 118.65 13.888C118.302 14.164 117.912 14.368 117.48 14.5C117.048 14.644 116.568 14.716 116.04 14.716ZM123.492 14.5V4.672H126.012V7.03L125.832 6.688C126.048 5.86 126.402 5.302 126.894 5.014C127.398 4.714 127.992 4.564 128.676 4.564H129.252V6.904H128.406C127.746 6.904 127.212 7.108 126.804 7.516C126.396 7.912 126.192 8.476 126.192 9.208V14.5H123.492ZM135.169 14.716C134.125 14.716 133.219 14.488 132.451 14.032C131.683 13.564 131.089 12.94 130.669 12.16C130.249 11.38 130.039 10.516 130.039 9.568C130.039 8.584 130.255 7.708 130.687 6.94C131.131 6.172 131.725 5.566 132.469 5.122C133.213 4.678 134.053 4.456 134.989 4.456C135.769 4.456 136.459 4.582 137.059 4.834C137.659 5.074 138.163 5.416 138.571 5.86C138.991 6.304 139.309 6.82 139.525 7.408C139.741 7.984 139.849 8.614 139.849 9.298C139.849 9.49 139.837 9.682 139.813 9.874C139.801 10.054 139.771 10.21 139.723 10.342H132.361V8.362H138.193L136.915 9.298C137.035 8.782 137.029 8.326 136.897 7.93C136.765 7.522 136.531 7.204 136.195 6.976C135.871 6.736 135.469 6.616 134.989 6.616C134.521 6.616 134.119 6.73 133.783 6.958C133.447 7.186 133.195 7.522 133.027 7.966C132.859 8.41 132.793 8.95 132.829 9.586C132.781 10.138 132.847 10.624 133.027 11.044C133.207 11.464 133.483 11.794 133.855 12.034C134.227 12.262 134.677 12.376 135.205 12.376C135.685 12.376 136.093 12.28 136.429 12.088C136.777 11.896 137.047 11.632 137.239 11.296L139.399 12.322C139.207 12.802 138.901 13.222 138.481 13.582C138.073 13.942 137.587 14.224 137.023 14.428C136.459 14.62 135.841 14.716 135.169 14.716Z" fill="#373F4C"/>
</svg>
