<svg width="20" height="20" viewBox="0 0 20 20" fill="none" xmlns="http://www.w3.org/2000/svg">
<path fill-rule="evenodd" clip-rule="evenodd" d="M13 8.5C13 10.9853 10.9853 13 8.5 13C6.01472 13 4 10.9853 4 8.5C4 6.01472 6.01472 4 8.5 4C10.9853 4 13 6.01472 13 8.5ZM12.8852 14.3852C12.539 14.039 11.9965 14.0023 11.5649 14.2335C10.6518 14.7226 9.6083 15 8.5 15C4.91015 15 2 12.0899 2 8.5C2 4.91015 4.91015 2 8.5 2C12.0899 2 15 4.91015 15 8.5C15 9.6083 14.7226 10.6518 14.2335 11.5649C14.0023 11.9965 14.039 12.539 14.3852 12.8852L17.2929 15.7929C17.6834 16.1834 17.6834 16.8166 17.2929 17.2071L17.2071 17.2929C16.8166 17.6834 16.1834 17.6834 15.7929 17.2929L12.8852 14.3852Z" fill="white"/>
</svg>
