<svg width="24" height="24" viewBox="0 0 24 24" fill="none" xmlns="http://www.w3.org/2000/svg">
  <path fill-rule="evenodd" clip-rule="evenodd" d="M9 2C7.89543 2 7 2.89543 7 4C7 4.55228 6.55228 5 6 5H3C1.34315 5 0 6.34315 0 8V19C0 20.6569 1.34315 22 3 22H21C22.6569 22 24 20.6569 24 19V8C24 6.34315 22.6569 5 21 5H18C17.4477 5 17 4.55228 17 4C17 2.89543 16.1046 2 15 2H9ZM17 13C17 15.7614 14.7614 18 12 18C9.23858 18 7 15.7614 7 13C7 10.2386 9.23858 8 12 8C14.7614 8 17 10.2386 17 13ZM12 16C13.6569 16 15 14.6569 15 13C15 11.3431 13.6569 10 12 10C10.3431 10 9 11.3431 9 13C9 14.6569 10.3431 16 12 16Z" fill="#373F4C"/>
</svg>
